<svg xmlns:svg="http://www.w3.org/2000/svg" xmlns="http://www.w3.org/2000/svg" xmlns:sodipodi="http://sodipodi.sourceforge.net/DTD/sodipodi-0.dtd" xmlns:inkscape="http://www.inkscape.org/namespaces/inkscape" sodipodi:docname="curriculum-header.svg" inkscape:version="1.1-dev (60faa23c, 2020-06-06)" id="svg6" version="1.1" viewBox="0 0 153.42836 42" height="42mm" width="153.42836mm">
  <defs id="defs2">
    <rect id="rect12" height="40.82143" width="76.351189" y="61.988094" x="34.773811"/>
  </defs>
  <sodipodi:namedview inkscape:window-maximized="0" inkscape:window-y="0" inkscape:window-x="0" inkscape:window-height="1080" inkscape:window-width="1920" fit-margin-bottom="0" fit-margin-right="0" fit-margin-left="0" fit-margin-top="0" showgrid="false" inkscape:current-layer="layer1" inkscape:document-units="mm" inkscape:cy="164.70848" inkscape:cx="198.25878" inkscape:zoom="0.98994949" inkscape:pageshadow="2" inkscape:pageopacity="0.0" borderopacity="1.0" bordercolor="#666666" pagecolor="#ffffff" id="base"/>
  <g transform="translate(20.895062,-62.97759)" id="layer1" inkscape:groupmode="layer" inkscape:label="Layer 1">
    <g transform="matrix(0.21,0,0,0.21,-27.594062,56.67759)" id="g509">
	<polygon fill="#dd0031" points="125,230 203.9,186.3 218.1,63.2 125,30 31.9,63.2 46.1,186.3 " id="polygon503"/>

	<polygon fill="#c3002f" points="125,52.1 125,153.4 125,230 203.9,186.3 218.1,63.2 125,30 125,52.2 " id="polygon505"/>

	<path fill="#ffffff" d="M 125,52.1 66.8,182.6 v 0 h 21.7 v 0 l 11.7,-29.2 h 49.4 l 11.7,29.2 v 0 H 183 v 0 z m 17,83.3 h -34 l 17,-40.9 z" id="path507"/>

</g>
    <text transform="matrix(1.138449,0,0,1.9557289,-17.875286,-64.991338)" style="font-style:normal;font-weight:normal;font-size:10.58329999999999949px;line-height:1.25;font-family:sans-serif;white-space:pre;shape-inside:url(#rect12);fill:#000080;fill-opacity:1;stroke:none;" id="text10" xml:space="preserve"><tspan x="34.773438" y="82.586693"><tspan style="font-style:normal;font-variant:normal;font-weight:bold;font-stretch:normal;font-size:22.5778px;font-family:'Noto Sans Lisu';-inkscape-font-specification:'Noto Sans Lisu Bold';fill:#000080">{TS}</tspan></tspan></text>
    <path style="stroke-width:0.102295" fill="#cd6799" d="m 124.75304,87.121796 c -1.95382,0.01018 -3.6519,0.480785 -5.0738,1.176389 -0.52171,-1.033176 -1.0434,-1.953826 -1.13547,-2.628969 -0.10226,-0.787663 -0.22504,-1.268448 -0.10226,-2.209553 0.12276,-0.94111 0.67514,-2.281165 0.66492,-2.383457 -0.0101,-0.102295 -0.12275,-0.58308 -1.24799,-0.59331 -1.12525,-0.01029 -2.09704,0.21482 -2.20956,0.511472 -0.11252,0.296654 -0.32734,0.971796 -0.47055,1.667398 -0.19437,1.022943 -2.25048,4.674853 -3.42687,6.587756 -0.37848,-0.746746 -0.70582,-1.401435 -0.77744,-1.923135 -0.10226,-0.787669 -0.22504,-1.268452 -0.10226,-2.209557 0.12275,-0.941108 0.67514,-2.281164 0.66491,-2.383457 -0.0101,-0.102295 -0.12275,-0.583079 -1.24799,-0.593309 -1.12524,-0.01029 -2.09704,0.214819 -2.20956,0.511473 -0.11253,0.296652 -0.23529,0.992256 -0.47055,1.667398 -0.23529,0.675142 -2.96655,6.771879 -3.68261,8.347218 -0.36826,0.808123 -0.68537,1.452581 -0.91042,1.89244 0,0 0,0 0,0 0,0 -0.0101,0.0307 -0.0409,0.08184 -0.19436,0.378487 -0.30688,0.583078 -0.30688,0.583078 0,0 0,0 0,0.01018 -0.15345,0.276192 -0.31712,0.531931 -0.39896,0.531931 -0.0614,0 -0.1739,-0.736522 0.0205,-1.738997 0.40918,-2.117502 1.38097,-5.411375 1.37073,-5.523893 0,-0.0614 0.18414,-0.634227 -0.63421,-0.930882 -0.7979,-0.296654 -1.08433,0.19436 -1.15593,0.19436 -0.0716,0 -0.12275,0.173897 -0.12275,0.173897 0,0 0.88996,-3.703054 -1.69808,-3.703054 -1.616269,0 -3.846269,1.769689 -4.951059,3.365482 -0.6956,0.378489 -2.178871,1.186612 -3.764421,2.056114 -0.60353,0.337572 -1.22753,0.675144 -1.8106,0.992261 -0.0409,-0.04091 -0.0818,-0.09207 -0.12276,-0.132981 -3.13017,-3.345029 -8.919995,-5.708028 -8.674495,-10.198748 0.0921,-1.636708 0.654678,-5.933072 11.119335,-11.150083 8.61317,-4.245215 15.4669,-3.068829 16.65351,-0.460322 1.69809,3.723512 -3.67237,10.638609 -12.571989,11.64109 -3.396171,0.37849 -5.176061,-0.930875 -5.626161,-1.421887 -0.47056,-0.511473 -0.54216,-0.542164 -0.71607,-0.439866 -0.28642,0.153439 -0.10226,0.613766 0,0.879728 0.26597,0.695603 1.36051,1.923136 3.21202,2.526671 1.636731,0.531933 5.615971,0.828585 10.43403,-1.033173 5.39093,-2.086804 9.60545,-7.886892 8.36769,-12.745873 -1.23776,-4.930584 -9.42132,-6.557066 -17.164989,-3.805349 -4.603241,1.636712 -9.595171,4.21453 -13.185678,7.569781 -4.265663,3.989481 -4.940804,7.457257 -4.664607,8.909834 0.992253,5.155632 8.101674,8.510892 10.945434,10.996642 -0.14321,0.08183 -0.27619,0.153443 -0.38871,0.214822 -1.42189,0.705829 -6.843442,3.539381 -8.193726,6.536605 -1.53442,3.396169 0.2455,5.830769 1.421871,6.158119 3.651895,1.0127 7.406065,-0.80813 9.421255,-3.81558 2.0152,-3.007458 1.76968,-6.915094 0.83883,-8.705247 -0.0101,-0.0205 -0.0204,-0.0409 -0.0409,-0.0614 0.36826,-0.214814 0.74675,-0.439867 1.115,-0.654681 0.7263,-0.429635 1.44234,-0.828585 2.056121,-1.155926 -0.347811,0.951335 -0.603551,2.0868 -0.726311,3.723517 -0.15343,1.923126 0.634241,4.419113 1.667411,5.401134 0.46032,0.429636 1.00249,0.439867 1.35029,0.439867 1.20707,0 1.74923,-1.002483 2.35276,-2.189103 0.73652,-1.452571 1.40144,-3.140428 1.40144,-3.140428 0,0 -0.82859,4.562324 1.421879,4.562324 0.81836,0 1.64695,-1.063863 2.0152,-1.606024 0,0.01029 0,0.01029 0,0.01029 0,0 0.0204,-0.0307 0.0614,-0.102295 0.0818,-0.132981 0.13298,-0.214814 0.13298,-0.214814 0,0 0,-0.01018 0,-0.02042 0.32735,-0.572847 1.06386,-1.871985 2.15841,-4.030394 1.41167,-2.782414 2.77219,-6.260416 2.77219,-6.260416 0,0 0.12275,0.84904 0.54216,2.260705 0.2455,0.828586 0.75698,1.739005 1.16615,2.618739 -0.32734,0.46032 -0.53193,0.716059 -0.53193,0.716059 0,0 0,0 0.0101,0.01018 -0.26596,0.347803 -0.55238,0.726291 -0.86949,1.094556 -1.11501,1.329823 -2.44486,2.854006 -2.62898,3.293873 -0.21481,0.521698 -0.16367,0.900187 0.2455,1.207073 0.29667,0.225045 0.8286,0.25573 1.37077,0.225045 1.00248,-0.07161 1.70831,-0.31711 2.05611,-0.470553 0.54216,-0.194359 1.17638,-0.491014 1.76969,-0.930879 1.09455,-0.808124 1.75947,-1.964051 1.69809,-3.488234 -0.0307,-0.838817 -0.30689,-1.677625 -0.64445,-2.465296 0.10226,-0.143211 0.19435,-0.286423 0.29664,-0.429635 1.72878,-2.526666 3.06883,-5.298846 3.06883,-5.298846 0,0 0.12276,0.849047 0.54217,2.260703 0.20459,0.716068 0.62399,1.493498 0.99225,2.250482 -1.62649,1.319592 -2.62896,2.854007 -2.98699,3.85649 -0.64445,1.861755 -0.14321,2.700572 0.80812,2.894931 0.42964,0.09207 1.0434,-0.112526 1.49351,-0.306877 0.57284,-0.184138 1.24798,-0.501246 1.89244,-0.971807 1.09454,-0.808115 2.14818,-1.933356 2.0868,-3.457539 -0.0307,-0.695606 -0.21482,-1.38098 -0.47055,-2.045892 1.38097,-0.572847 3.16089,-0.889956 5.43183,-0.623995 4.8692,0.572848 5.83077,3.610991 5.64664,4.889675 -0.18412,1.278676 -1.20708,1.974273 -1.54464,2.189095 -0.33758,0.214814 -0.4501,0.286424 -0.41941,0.439867 0.0409,0.225045 0.20459,0.214814 0.49101,0.173897 0.39896,-0.07161 2.55737,-1.033169 2.64942,-3.385938 0.15345,-3.007457 -2.7108,-6.2911 -7.77436,-6.260415 z M 87.19059,99.785838 c -1.61623,1.759462 -3.8667,2.424372 -4.838507,1.861762 -1.04339,-0.60355 -0.63421,-3.201817 1.350277,-5.063579 1.20708,-1.135463 2.76194,-2.189094 3.79511,-2.833552 0.23528,-0.143213 0.58307,-0.347795 1.00248,-0.603533 0.0716,-0.0409 0.11252,-0.0614 0.11252,-0.0614 v 0 c 0.0818,-0.05112 0.16367,-0.102296 0.24549,-0.153443 0.7263,2.659655 0.0307,5.002191 -1.66737,6.853723 z m 11.763801,-7.999419 c -0.56261,1.370749 -1.739,4.879443 -2.45506,4.685084 -0.61376,-0.163675 -0.99225,-2.823322 -0.12274,-5.452291 0.43986,-1.3196 1.37074,-2.894931 1.9129,-3.508696 0.87973,-0.982021 1.851529,-1.30937 2.086799,-0.910418 0.29666,0.521698 -1.074099,4.327049 -1.421899,5.186321 z m 9.707749,4.644159 c -0.23528,0.122758 -0.46032,0.204591 -0.56262,0.143212 -0.0716,-0.0409 0.10226,-0.204582 0.10226,-0.204582 0,0 1.21731,-1.30937 1.69809,-1.90268 0.2762,-0.347794 0.60353,-0.756976 0.95134,-1.217297 0,0.0409 0,0.09206 0,0.132981 0,1.565108 -1.51396,2.618731 -2.1891,3.048366 z m 7.48794,-1.708311 c -0.1739,-0.122758 -0.14321,-0.531931 0.43988,-1.810607 0.22504,-0.501246 0.75697,-1.340055 1.66739,-2.148179 0.10226,0.327333 0.1739,0.64445 0.16368,0.941105 -0.0101,1.974281 -1.4219,2.710794 -2.27095,3.017681 z" id="path451"/>
  </g>
</svg>